<svg fill="#fff" xmlns="http://www.w3.org/2000/svg"  viewBox="0 0 26 26" width="26px" height="26px"><path d="M 13 2 C 9.824219 2 7.480469 2.667969 5.78125 3.71875 C 5.179688 4.078125 4.910156 4.804688 5.125 5.46875 C 4.972656 5.609375 4.816406 5.761719 4.6875 5.90625 C 3.269531 7.488281 3 9.261719 3 10.15625 L 3 11 C 0.980469 12.511719 0 14.195313 0 15 L 0 22 C 0 23.65625 1.34375 25 3 25 L 23 25 C 24.65625 25 26 23.65625 26 22 L 26 15 C 26 14.195313 25.019531 12.511719 23 11 L 23 10.15625 C 23 9.261719 22.730469 7.488281 21.3125 5.90625 C 21.183594 5.761719 21.027344 5.609375 20.875 5.46875 C 21.089844 4.804688 20.820313 4.078125 20.21875 3.71875 C 18.519531 2.667969 16.183594 2 13 2 Z M 13 5 C 15.761719 5 17.523438 5.578125 18.65625 6.28125 C 19.148438 6.578125 19.769531 6.566406 20.25 6.25 C 20.355469 6.351563 20.46875 6.457031 20.5625 6.5625 C 21.773438 7.914063 22 9.476563 22 10.15625 L 22 10.3125 C 19.886719 9.023438 16.90625 8 13 8 C 9.09375 8 6.113281 9.023438 4 10.3125 L 4 10.15625 C 4 9.476563 4.226563 7.914063 5.4375 6.5625 C 5.53125 6.457031 5.644531 6.351563 5.75 6.25 C 6.230469 6.566406 6.851563 6.578125 7.34375 6.28125 C 8.476563 5.582031 10.242188 5 13 5 Z M 13 10 C 20.148438 10 23.535156 13.773438 23.96875 15 L 22 15 C 20.34375 15 18 16.5 18 19 C 18 21.5 20.34375 22 22 22 L 24 22 C 24 22.550781 23.550781 23 23 23 L 3 23 C 2.449219 23 2 22.550781 2 22 L 4 22 C 5.65625 22 8 21.5 8 19 C 8 16.5 5.65625 15 4 15 L 2.03125 15 C 2.464844 13.773438 5.851563 10 13 10 Z M 13 12 C 9 12 7.46875 13 7.46875 13 C 7.46875 13 9.5 14.015625 9.5 16 L 16.5 16 C 16.5 14 18.53125 13 18.53125 13 C 18.53125 13 17 12 13 12 Z"/></svg>